PathFileType	4	(X/Y/Z)	..\data\2015002\dynamic\2015002_C4_04.trc
DataRate	CameraRate	NumFrames	NumMarkers	Units	OrigDataRate	OrigDataStartFrame	OrigNumFrames
100.000000	100.000000	4	52	mm	100.000000	84	168
Frame#	Time	L_IAS			L_IPS			R_IPS			R_IAS			L_FTC			L_FLE			L_FME			L_FAX			L_TTC			L_FAL			L_TAM			L_FCC			L_FM1			L_FM2			L_FM5			R_FTC			R_FLE			R_FME			R_FAX			R_TTC			R_FAL			R_TAM			R_FCC			R_FM1			R_FM2			R_FM5			CV7			TV10			SXS			SJN			L_SIA			L_SRS			L_SAA			L_SAE			L_HLE			L_HME			L_UOA			L_RSP			L_UHE			L_HM2			L_HM5			R_SIA			R_SRS			R_SAA			R_SAE			R_HLE			R_HME			R_UOA			R_RSP			R_UHE			R_HM2			R_HM5			
		X1	Y1	Z1	X2	Y2	Z2	X3	Y3	Z3	X4	Y4	Z4	X5	Y5	Z5	X6	Y6	Z6	X7	Y7	Z7	X8	Y8	Z8	X9	Y9	Z9	X10	Y10	Z10	X11	Y11	Z11	X12	Y12	Z12	X13	Y13	Z13	X14	Y14	Z14	X15	Y15	Z15	X16	Y16	Z16	X17	Y17	Z17	X18	Y18	Z18	X19	Y19	Z19	X20	Y20	Z20	X21	Y21	Z21	X22	Y22	Z22	X23	Y23	Z23	X24	Y24	Z24	X25	Y25	Z25	X26	Y26	Z26	X27	Y27	Z27	X28	Y28	Z28	X29	Y29	Z29	X30	Y30	Z30	X31	Y31	Z31	X32	Y32	Z32	X33	Y33	Z33	X34	Y34	Z34	X35	Y35	Z35	X36	Y36	Z36	X37	Y37	Z37	X38	Y38	Z38	X39	Y39	Z39	X40	Y40	Z40	X41	Y41	Z41	X42	Y42	Z42	X43	Y43	Z43	X44	Y44	Z44	X45	Y45	Z45	X46	Y46	Z46	X47	Y47	Z47	X48	Y48	Z48	X49	Y49	Z49	X50	Y50	Z50	X51	Y51	Z51	X52	Y52	Z52	

85	0.84	787.1439208984377	982.450134277344	-327.4969482421876	598.7495727539064	985.4564208984377	-234.3747558593751	604.0289306640626	986.9926757812502	-133.6247863769532	798.192565917969	983.9483032226565	-74.35043334960939	716.4904785156251	895.0215454101565	-389.9150695800782	816.9031982421877	487.7897033691407	-404.342987060547	842.4192504882815	475.7971496582032	-267.8263549804688	768.7186279296877	449.6137695312501	-396.3667602539064	823.0125732421877	397.9708251953126	-350.3409118652344	494.4699707031251	241.3826599121094	-338.3081359863282	531.8735351562501	220.799789428711	-254.0251007080079	428.6766357421876	247.0798950195313	-259.6484069824219	533.7809448242189	74.69061279296876	-279.1395568847657	546.5055541992189	93.78027343750001	-332.7732543945313	507.3518371582032	125.6494216918946	-378.7561035156251	745.1022338867189	887.2777099609377	-10.82417106628418	787.1604003906252	470.9465332031251	-50.32126998901369	807.975036621094	464.2898864746095	-182.47119140625	768.163269042969	414.8109130859376	-53.50998687744142	840.9431762695315	400.4559020996095	-99.54832458496097	709.3685913085939	68.27158355712892	-102.8219146728516	756.5057373046876	83.79941558837892	-185.9067993164063	669.9691162109376	21.31088829040528	-171.8681335449219	881.0715942382815	14.501051902771	-154.1136779785157	882.3901977539065	36.70362091064454	-94.12186431884767	813.1412353515627	18.61565589904786	-40.57626724243165	671.7543945312501	1478.985473632813	-184.1330718994141	582.5222778320314	1226.328857421875	-187.9554443359375	837.5227661132815	1175.766479492188	-191.4405364990235	788.946960449219	1381.394287109375	-184.4300994873047	583.1768798828126	1258.193603515625	-305.2594604492188	610.4355468750001	1412.152099609375	-275.4761962890626	667.9175415039064	1418.564697265625	-364.9674682617188	722.7781982421876	1411.399047851563	-391.258758544922	732.5272827148439	1103.891235351563	-455.4734802246095	700.0115356445314	1081.805786132813	-377.1107177734376	707.9071044921876	1059.57958984375	-446.4363403320314	911.0486450195315	907.2442626953127	-429.0598144531251	861.259704589844	887.1295166015627	-486.0395812988282	976.365417480469	831.6376953125002	-434.7231750488282	889.6329345703127	805.2348632812502	-488.9090881347657	582.3151855468751	1246.837280273438	-65.39192962646486	615.5057373046876	1398.779541015625	-79.5206985473633	672.1095581054689	1400.781494140625	2.389304637908936	715.5236816406251	1396.837036132813	23.49116897583008	702.3558349609376	1082.275756835938	83.10220336914064	664.7557373046876	1068.581298828125	0.4254974722862245	658.1514282226564	1037.597290039063	60.64250564575197	819.0769042968752	847.074890136719	29.73733711242676	775.6790161132815	840.8519287109377	94.75010681152345	860.7690429687502	751.6481933593751	42.72280502319337	774.3334960937502	760.1978149414064	102.1052551269532	
86	0.85	798.7176513671877	984.446716308594	-325.5866088867188	610.1638793945314	986.9236450195315	-232.7972869873047	615.2332153320314	988.258728027344	-132.0792236328125	809.338073730469	984.9467773437502	-72.4419631958008	728.9380493164064	897.1213989257815	-388.395477294922	837.975769042969	491.3328552246095	-402.0399169921876	864.0823364257815	480.1260681152345	-265.5128479003907	791.1008911132815	452.1770629882814	-393.8663330078126	846.440368652344	401.886199951172	-347.6703796386719	522.1494140625001	236.6715698242188	-336.0032043457032	559.2527465820314	218.5065002441407	-251.2071380615235	454.9051513671876	240.4149627685547	-258.2255859375001	568.0117797851564	72.82352447509767	-274.2805786132813	580.3337402343751	92.01534271240236	-328.0139465332032	540.1625366210939	120.896484375	-374.7554321289063	755.1952514648439	887.7141113281252	-9.424910545349123	789.676696777344	471.100311279297	-49.66818237304689	810.6094360351565	464.0997924804689	-182.0342102050782	769.9338989257815	414.8993530273439	-53.04962539672853	842.4971313476565	399.9535217285157	-98.96760559082034	709.3537597656251	68.33518218994142	-102.8177719116211	756.4560546875001	83.81954193115236	-185.8485717773438	669.8279418945314	21.52461051940918	-171.8914184570313	880.984069824219	14.4286060333252	-154.0198211669922	882.3006591796877	36.65698623657227	-94.00296783447267	813.044128417969	18.51132965087891	-40.44865036010743	683.0300292968751	1480.036865234375	-182.8618621826172	593.8552246093751	1227.302734375	-185.771469116211	848.899108886719	1177.2685546875	-190.6661682128907	800.1284790039065	1382.535034179688	-183.7706298828125	593.6028442382814	1259.088256835938	-302.6949768066407	621.1481323242189	1413.041259765625	-273.5712280273438	677.9185180664064	1419.3388671875	-363.4309082031251	732.4763793945314	1412.055053710938	-390.2262268066407	739.6860961914064	1104.2255859375	-453.4245605468751	706.9832763671876	1082.809692382813	-375.0445556640626	714.3588256835939	1060.426391601563	-444.2929077148439	914.4788818359377	904.2907714843752	-427.5415649414064	864.289001464844	885.2368774414065	-484.483612060547	978.0367431640627	826.954528808594	-433.0427856445314	890.806823730469	802.709167480469	-487.380828857422	594.5161132812501	1248.343994140625	-62.86170959472658	627.4162597656251	1400.109497070313	-77.52434539794923	685.0112304687501	1402.207763671875	3.91589903831482	728.8256835937501	1398.353637695313	24.50123405456544	721.9690551757814	1083.53515625	84.5769500732422	682.4476928710939	1069.2314453125	2.687188863754273	678.0843505859376	1037.926513671875	62.91194152832033	841.8044433593752	850.656433105469	27.98016738891602	800.351501464844	843.6639404296877	94.1765594482422	885.736022949219	756.0307617187501	39.73353576660157	800.8654785156252	763.0821533203126	101.6569747924805	
87	0.86	810.3748168945315	986.1644287109377	-323.5528259277344	621.6017456054689	988.1239013671877	-231.4095153808594	626.4183349609376	989.3385009765627	-130.6978912353516	820.4003906250002	985.7867431640627	-70.4390335083008	741.6056518554689	899.0367431640627	-386.9601440429689	858.6329345703127	494.6826171875001	-399.6960754394532	885.285583496094	484.3330688476564	-263.2195129394532	813.147155761719	454.3204650878907	-391.3139038085939	869.558776855469	405.7076416015626	-344.9365539550782	550.3493652343751	230.7522888183594	-333.5162048339844	587.2069091796876	215.1121215820313	-248.2706756591797	481.8106384277345	232.2841186523438	-256.5276184082032	603.2044067382814	70.18917846679689	-269.4453735351563	614.9876708984376	89.55379486083986	-323.2540283203126	573.7786254882814	115.3380966186524	-370.6884765625001	765.0345458984376	887.9429931640627	-7.997460365295412	792.0312500000002	471.2813110351564	-49.02534866333009	813.2229614257815	463.9407958984376	-181.5824127197266	771.5668945312502	415.0164794921876	-52.61356353759767	843.9937133789065	399.4663696289064	-98.37873077392581	709.3495483398439	68.41171264648439	-102.8331527709961	756.4082641601564	83.85801696777345	-185.7948150634766	669.7202758789064	21.75102424621582	-171.9217376708985	880.905456542969	14.40743350982666	-153.912582397461	882.2276000976565	36.65111541748048	-93.86244964599611	812.9516601562502	18.43988990783692	-40.29934310913087	694.2859497070314	1480.889282226563	-181.674072265625	605.2051391601564	1228.083740234375	-183.6899566650391	860.2959594726565	1178.617065429688	-189.8148803710938	811.2952880859377	1383.507690429688	-183.1363525390625	604.1041870117189	1259.786865234375	-300.2756652832032	631.8848266601564	1413.719482421875	-271.7384033203126	687.9425048828126	1419.911865234375	-361.9427490234376	742.1689453125001	1412.512451171875	-389.2430114746095	746.6550292968751	1104.405151367188	-451.5090332031251	713.7499389648439	1083.65869140625	-373.1245422363282	720.6104125976564	1061.134155273438	-442.3092651367189	917.5952148437502	901.2092285156252	-426.0443725585939	867.0437622070315	883.2224731445315	-482.9620361328126	979.3854980468752	822.2042236328127	-431.4456176757814	891.6951293945315	800.1269531250002	-485.9274902343751	606.7080078125001	1249.638916015625	-60.46509933471681	639.2744140625001	1401.228881835938	-75.6486053466797	697.7403564453126	1403.456298828125	5.280900478363038	742.0173339843751	1399.695922851563	25.42079544067384	741.5643310546876	1084.805419921875	85.93884277343751	700.2209472656251	1069.813232421875	4.854488849639893	698.0635986328126	1038.23193359375	65.04316711425783	864.4462890625002	854.331237792969	26.12414741516114	825.0796508789065	846.6306762695315	93.48032379150392	910.5864868164065	760.5407104492189	36.62573242187501	827.482849121094	766.1984252929689	101.1259536743164	
88	0.87	822.0987548828127	987.5445556640627	-321.4240417480469	633.0598754882814	989.0230102539065	-230.2118682861329	637.5964965820314	990.2089843750002	-129.4839477539063	831.3948364257815	986.4322509765627	-68.35787963867189	754.4583740234376	900.7230224609377	-385.5936584472657	878.8645019531252	497.7969970703126	-397.3168945312501	905.9721679687502	488.3809204101564	-260.9401550292969	834.835388183594	456.0130920410157	-388.7156372070314	892.327819824219	409.3869018554689	-342.1427307128907	579.0763549804689	223.7229003906251	-330.8297119140626	615.7610473632814	210.6383972167969	-245.2219696044922	509.4712829589845	222.7478790283204	-254.5045166015626	639.2997436523439	66.88869476318361	-264.7755126953126	650.3803100585939	86.51419830322267	-318.6316833496094	608.1325073242189	109.1745071411133	-366.6446228027344	774.6618652343752	887.9707641601565	-6.549643039703371	794.2711181640627	471.4720153808595	-48.4086265563965	815.8336181640627	463.7982788085939	-181.1327362060547	773.112487792969	415.1516418457032	-52.21633529663087	845.4840087890627	398.9776611328126	-97.80949401855472	709.3529663085939	68.50273895263673	-102.872543334961	756.3715820312501	83.9089813232422	-185.7552795410157	669.6477050781251	21.97816848754883	-171.9632568359375	880.8388671875002	14.43670654296875	-153.7982482910157	882.1690673828127	36.67828750610352	-93.7090301513672	812.861267089844	18.39504432678223	-40.13632965087891	705.5421142578126	1481.5302734375	-180.5703277587891	616.5779418945314	1228.664672851563	-181.7101745605469	871.7119140625002	1179.759155273438	-188.8825225830078	822.4669189453127	1384.289672851563	-182.5236968994141	614.6812133789064	1260.262084960938	-297.9925231933594	642.6614379882814	1414.174072265625	-269.9812011718751	698.0059814453126	1420.259521484375	-360.5094909667969	751.8751831054689	1412.74365234375	-388.3164978027345	753.4616699218751	1104.40673828125	-449.722625732422	720.3419189453126	1084.325927734375	-371.3472595214844	726.6920166015626	1061.684814453125	-440.4831848144532	920.432312011719	897.9890136718752	-424.5605773925782	869.5577392578127	881.0715332031252	-481.4701232910157	980.4486083984377	817.3872680664065	-429.9129028320314	892.3388671875002	797.4685058593752	-484.5292053222657	618.8991088867189	1250.71484375	-58.18861770629884	651.0969238281251	1402.128295898438	-73.89276123046876	710.3218994140626	1404.510864257813	6.502532958984377	755.1026611328126	1400.84814453125	26.25897026062012	761.0994873046876	1086.06884765625	87.18527984619142	718.0651855468751	1070.303344726563	6.919692993164064	718.0499877929689	1038.503662109375	67.03137207031251	886.9835205078127	858.092224121094	24.18827056884766	849.7955322265627	849.7246704101565	92.65243530273439	935.3244628906252	765.1859130859376	33.43574523925782	854.128356933594	769.5083007812502	100.4728546142578	
